<svg width="938" height="1007" viewBox="0 0 938 1007" fill="none" xmlns="http://www.w3.org/2000/svg">
<rect x="0.5" y="0.5" width="143.593" height="80" rx="9.5" fill="#EDEDED" stroke="#D5D0D0"/>
<rect x="0.5" y="94.5" width="645.477" height="554" rx="1.5" fill="#EDEDED" stroke="#D5D0D0"/>
<rect x="658.502" y="94.5" width="278.756" height="554" rx="1.5" fill="#EDEDED" stroke="#D5D0D0"/>
<rect x="0.5" y="671.5" width="937" height="335" rx="1.5" fill="#EDEDED" stroke="#D5D0D0"/>
<rect x="166.048" y="0.5" width="143.593" height="80" rx="9.5" fill="#EDEDED" stroke="#D5D0D0"/>
<rect x="331.597" y="0.5" width="143.593" height="80" rx="9.5" fill="#EDEDED" stroke="#D5D0D0"/>
<rect x="485.619" y="0.5" width="143.593" height="80" rx="9.5" fill="#EDEDED" stroke="#D5D0D0"/>
<rect x="639.642" y="0.5" width="143.593" height="80" rx="9.5" fill="#EDEDED" stroke="#D5D0D0"/>
<rect x="658.502" y="94.5" width="278.756" height="53" fill="#EDEDED" stroke="#D5D0D0"/>
<rect x="658.502" y="244.5" width="278.756" height="53" fill="#EDEDED" stroke="#D5D0D0"/>
<rect x="658.502" y="345.5" width="278.756" height="53" fill="#EDEDED" stroke="#D5D0D0"/>
<rect x="658.502" y="487.5" width="278.756" height="53" fill="#EDEDED" stroke="#D5D0D0"/>
<rect x="793.665" y="0.5" width="143.593" height="80" rx="9.5" fill="#EDEDED" stroke="#D5D0D0"/>
</svg>
